<svg id="logosandtypes_com" xmlns="http://www.w3.org/2000/svg" viewBox="0 0 150 150" xml:space="preserve"><style>.st1{fill:#0d6bff}</style><path d="M0 0h150v150H0V0z" fill="none"/><path class="st1" d="M70.1 92.1c13.3 6.7 29.7 1.2 36.4-12.3 0-.2.2-.3.2-.5 6.7-13.7 1-30.2-12.5-37-13.4-6.8-29.8-1.3-36.4 12.3 0 .2-.2.3-.2.5-6.7 13.5-1 30 12.5 37z"/><path class="st1" d="M104.3 18.5C73.1 3.1 35.3 15.8 19.9 47c-.2.3-.3.7-.5 1-6.4 13.1-8.1 28-5 42.1 0 .2 0 .3.2.3v.2c.8 2.9 3.4 4.7 6.2 4.7 3.5 0 6.4-3 6.4-6.5 0-.5 0-1.2-.2-1.7-2.5-11.4-1-23.1 4-33.6 11.9-25.2 41.8-35.9 66.9-24 .3.2.5.3.8.3 25.2 12.7 35.6 43.3 23.3 68.8-9.9 21-32.9 32.4-55.7 27.8l15.9-23.7c-5.9.2-11.7-1.2-16.9-3.9-5.3-2.4-9.8-6.3-13.3-11.2L43.4 115l-.2-.2v.7l-.5 1.3-2.7 8.4-.3 1v.2l-.5 1.8c2.9 2.2 6 4 9.2 5.5 31.2 15.4 68.9 2.7 84.4-28.5.2-.3.3-.7.5-1 15.6-31.3 2.7-69.7-29-85.7z"/></svg>